<?xml version="1.0" encoding="utf-8"?>
<!-- Generator: Adobe Illustrator 16.0.0, SVG Export Plug-In . SVG Version: 6.00 Build 0)  -->
<!DOCTYPE svg PUBLIC "-//W3C//DTD SVG 1.1//EN" "http://www.w3.org/Graphics/SVG/1.1/DTD/svg11.dtd">
<svg version="1.1" id="圖層_1" xmlns="http://www.w3.org/2000/svg" xmlns:xlink="http://www.w3.org/1999/xlink" x="0px" y="0px"
	 width="153px" height="39px" viewBox="0 0 153 39" enable-background="new 0 0 153 39" xml:space="preserve">
<path fill="#FFFFFF" d="M14.742,10.618v3.536H9.75V29H5.278V14.154h-4.94v-3.536H14.742z M28.004,25.646h-6.89L19.97,29h-4.68
	l6.734-18.252h5.122L33.88,29h-4.732L28.004,25.646z M26.86,22.266l-2.288-6.76l-2.314,6.76H26.86z M40.054,14.492V29h-4.446V14.492
	H40.054z M68.11,10.618L63.716,29h-5.512l-2.938-12.298L52.302,29H46.79l-4.394-18.382h4.836l2.366,13.312l3.224-13.312h4.862
	l3.224,13.312L63.3,10.618H68.11z M81.832,25.646h-6.89L73.798,29h-4.68l6.734-18.252h5.123L87.708,29h-4.731L81.832,25.646z
	 M80.688,22.266l-2.287-6.76l-2.314,6.76H80.688z M105.764,29h-4.445l-7.436-11.284V29h-4.446V10.618h4.446l7.436,11.388V10.618
	h4.445V29z"/>
<path fill="#00D19F" d="M122.646,10.436c2.305,0,4.203,0.563,5.693,1.69c1.491,1.127,2.418,2.652,2.782,4.576h-4.706
	c-0.313-0.659-0.789-1.179-1.43-1.56c-0.641-0.399-1.413-0.598-2.314-0.598c-1.404,0-2.531,0.477-3.38,1.43
	c-0.849,0.936-1.274,2.21-1.274,3.822c0,1.751,0.442,3.095,1.326,4.03c0.901,0.936,2.176,1.404,3.822,1.404
	c1.057,0,1.984-0.287,2.782-0.858c0.797-0.589,1.36-1.421,1.69-2.496h-5.617v-3.198h9.334v4.395c-0.347,1.074-0.9,2.071-1.664,2.99
	c-0.762,0.918-1.741,1.664-2.938,2.235c-1.179,0.572-2.531,0.858-4.056,0.858c-1.855,0-3.476-0.391-4.862-1.17
	c-1.387-0.798-2.461-1.907-3.225-3.328c-0.744-1.422-1.117-3.042-1.117-4.862c0-1.82,0.373-3.44,1.117-4.862
	c0.764-1.421,1.83-2.522,3.199-3.302C119.197,10.835,120.809,10.436,122.646,10.436z M142.581,10.332
	c1.733,0,3.302,0.407,4.706,1.222c1.421,0.797,2.539,1.915,3.354,3.354c0.814,1.421,1.223,3.033,1.223,4.836
	s-0.416,3.424-1.248,4.861c-0.815,1.439-1.934,2.566-3.354,3.381c-1.403,0.797-2.964,1.195-4.68,1.195s-3.285-0.398-4.706-1.195
	c-1.404-0.814-2.521-1.941-3.354-3.381c-0.815-1.438-1.223-3.059-1.223-4.861s0.407-3.415,1.223-4.836
	c0.832-1.439,1.949-2.557,3.354-3.354C139.296,10.739,140.865,10.332,142.581,10.332z M142.581,14.466
	c-1.456,0-2.618,0.477-3.483,1.43c-0.851,0.936-1.274,2.219-1.274,3.848c0,1.611,0.424,2.895,1.274,3.848
	c0.865,0.953,2.027,1.43,3.483,1.43c1.438,0,2.591-0.477,3.458-1.43c0.865-0.953,1.3-2.236,1.3-3.848c0-1.612-0.435-2.895-1.3-3.848
	C145.189,14.943,144.037,14.466,142.581,14.466z"/>
<circle fill="#00D19F" cx="37.968" cy="9.5" r="3.5"/>
</svg>
