<svg width="534" height="135" viewBox="0 0 534 135" fill="none" xmlns="http://www.w3.org/2000/svg">
<path d="M51.03 35.82V48.15H34.29V99H18.9V48.15H2.16V35.82H51.03ZM98.0838 87.84H74.5038L70.7238 99H54.6138L77.4738 35.82H95.2938L118.154 99H101.864L98.0838 87.84ZM94.1238 75.96L86.2938 52.83L78.5538 75.96H94.1238ZM132.851 43.56C130.151 43.56 127.931 42.78 126.191 41.22C124.511 39.6 123.671 37.62 123.671 35.28C123.671 32.88 124.511 30.9 126.191 29.34C127.931 27.72 130.151 26.91 132.851 26.91C135.491 26.91 137.651 27.72 139.331 29.34C141.071 30.9 141.941 32.88 141.941 35.28C141.941 37.62 141.071 39.6 139.331 41.22C137.651 42.78 135.491 43.56 132.851 43.56ZM140.501 48.78V99H125.111V48.78H140.501ZM238.594 35.82L222.124 99H203.494L193.414 57.42L182.974 99H164.344L148.324 35.82H164.794L173.884 81.81L185.134 35.82H202.054L212.854 81.81L222.034 35.82H238.594ZM285.642 87.84H262.062L258.282 99H242.172L265.032 35.82H282.852L305.712 99H289.422L285.642 87.84ZM281.682 75.96L273.852 52.83L266.112 75.96H281.682ZM369.19 99H353.8L328.06 60.03V99H312.67V35.82H328.06L353.8 74.97V35.82H369.19V99Z" fill="black"/>
<path d="M441.358 55.8C440.218 53.7 438.568 52.11 436.408 51.03C434.308 49.89 431.818 49.32 428.938 49.32C423.958 49.32 419.968 50.97 416.968 54.27C413.968 57.51 412.468 61.86 412.468 67.32C412.468 73.14 414.028 77.7 417.148 81C420.328 84.24 424.678 85.86 430.198 85.86C433.978 85.86 437.158 84.9 439.738 82.98C442.378 81.06 444.298 78.3 445.498 74.7H425.968V63.36H459.448V77.67C458.308 81.51 456.358 85.08 453.598 88.38C450.898 91.68 447.448 94.35 443.248 96.39C439.048 98.43 434.308 99.45 429.028 99.45C422.788 99.45 417.208 98.1 412.288 95.4C407.428 92.64 403.618 88.83 400.858 83.97C398.158 79.11 396.808 73.56 396.808 67.32C396.808 61.08 398.158 55.53 400.858 50.67C403.618 45.75 407.428 41.94 412.288 39.24C417.148 36.48 422.698 35.1 428.938 35.1C436.498 35.1 442.858 36.93 448.018 40.59C453.238 44.25 456.688 49.32 458.368 55.8H441.358ZM497.853 99.63C491.913 99.63 486.453 98.25 481.473 95.49C476.553 92.73 472.623 88.89 469.683 83.97C466.803 78.99 465.363 73.41 465.363 67.23C465.363 61.05 466.803 55.5 469.683 50.58C472.623 45.66 476.553 41.82 481.473 39.06C486.453 36.3 491.913 34.92 497.853 34.92C503.793 34.92 509.223 36.3 514.143 39.06C519.123 41.82 523.023 45.66 525.843 50.58C528.723 55.5 530.163 61.05 530.163 67.23C530.163 73.41 528.723 78.99 525.843 83.97C522.963 88.89 519.063 92.73 514.143 95.49C509.223 98.25 503.793 99.63 497.853 99.63ZM497.853 85.59C502.893 85.59 506.913 83.91 509.913 80.55C512.973 77.19 514.503 72.75 514.503 67.23C514.503 61.65 512.973 57.21 509.913 53.91C506.913 50.55 502.893 48.87 497.853 48.87C492.753 48.87 488.673 50.52 485.613 53.82C482.613 57.12 481.113 61.59 481.113 67.23C481.113 72.81 482.613 77.28 485.613 80.64C488.673 83.94 492.753 85.59 497.853 85.59Z" fill="#00D19F"/>
<circle cx="132.5" cy="32.5" r="11.5" fill="#00D19F"/>
</svg>
